<?xml version="1.0" encoding="UTF-8" standalone="no" ?>
<!DOCTYPE svg PUBLIC "-//W3C//DTD SVG 1.1//EN" "http://www.w3.org/Graphics/SVG/1.1/DTD/svg11.dtd">
<svg xmlns="http://www.w3.org/2000/svg" xmlns:xlink="http://www.w3.org/1999/xlink" version="1.1" width="624" height="624" viewBox="0 0 260 260" xml:space="preserve">
<desc>Created with Fabric.js 3.6.3</desc>
<defs>
</defs>
<g transform="matrix(1 0 0 1 129.9 130.1)"  >
<path style="stroke: rgb(0,0,0); stroke-width: 0; stroke-dasharray: none; stroke-linecap: butt; stroke-dashoffset: 0; stroke-linejoin: miter; stroke-miterlimit: 4; fill: rgb(255,255,255); fill-rule: nonzero; opacity: 1;"  transform=" translate(-128, -128)" d="m 54.66999 24.03567 l 0.66204 207.96598 l 146 0 l -0.18367 -145.60204 l -60.99055 -62.39796 l -85.48781 0.03401 l -0.00001 0.00001 z" stroke-linecap="round" />
</g>
<g transform="matrix(1 0 0 1 173.21 57.96)"  >
<path style="stroke: rgb(0,0,0); stroke-width: 0; stroke-dasharray: none; stroke-linecap: butt; stroke-dashoffset: 0; stroke-linejoin: miter; stroke-miterlimit: 4; fill: rgb(255,208,192); fill-rule: nonzero; opacity: NaN;"  transform=" translate(-171.31, -55.86)" d="m 141.78222 25.07394 l -0.06647 61.57667 l 59.18275 0" stroke-linecap="round" />
</g>
<g transform="matrix(1 0 0 1 129.9 130.1)"  >
<path style="stroke: rgb(255,0,0); stroke-width: 3; stroke-dasharray: none; stroke-linecap: butt; stroke-dashoffset: 0; stroke-linejoin: miter; stroke-miterlimit: 4; fill: rgb(255,255,255); fill-opacity: 0; fill-rule: nonzero; opacity: 1;"  transform=" translate(-128, -128)" d="m 54.66917 24.03268 l 0.66204 207.96598 l 146 0 l -0.18367 -145.60204 l -60.99055 -62.39796 l -85.48781 0.03401 l -0.00001 0.00001 z" stroke-linecap="round" />
</g>
<g transform="matrix(1 0 0 1 172.48 57.66)"  >
<path style="stroke: rgb(255,0,0); stroke-width: 3; stroke-dasharray: none; stroke-linecap: butt; stroke-dashoffset: 0; stroke-linejoin: miter; stroke-miterlimit: 4; fill: rgb(15,255,255); fill-opacity: 0; fill-rule: nonzero; opacity: NaN;"  transform=" translate(-171, -55.56)" d="m 141.47919 24.77091 l -0.06647 61.57667 l 59.18275 0" stroke-linecap="round" />
</g>
<g transform="matrix(3.76 0 0 3.76 131.37 150.38)" id="path2697"  >
<path style="stroke: none; stroke-width: 0.26458335; stroke-dasharray: none; stroke-linecap: butt; stroke-dashoffset: 0; stroke-linejoin: miter; stroke-miterlimit: 4; fill: rgb(255,33,22); fill-rule: nonzero; opacity: 1;"  transform=" translate(10.71, -148.79)" d="m -23.40766 161.09299 c -1.45669 -1.45669 0.11934 -3.45839 4.39648 -5.58397 l 2.69124 -1.33743 l 1.04845 -2.29399 c 0.57665 -1.26169 1.43729 -3.32036 1.91254 -4.5748 l 0.8641 -2.28082 l -0.59546 -1.68793 c -0.73217 -2.07547 -0.99326 -5.19438 -0.52872 -6.31588 c 0.62923 -1.51909 2.69029 -1.36323 3.50626 0.26515 c 0.63727 1.27176 0.57212 3.57488 -0.18329 6.47946 l -0.6193 2.38125 l 0.5455 0.92604 c 0.30003 0.50932 1.1764 1.71867 1.9475 2.68743 l 1.44924 1.80272 l 1.8033728 -0.23533 c 5.72900399 -0.74758 7.6912472 0.523 7.6912472 2.34476 c 0 2.29921 -4.4984914 2.48899 -8.2760865 -0.16423 c -0.8499666 -0.59698 -1.4336605 -1.19001 -1.4336605 -1.19001 c 0 0 -2.3665326 0.48178 -3.531704 0.79583 c -1.202707 0.32417 -1.80274 0.52719 -3.564509 1.12186 c 0 0 -0.61814 0.89767 -1.02094 1.55026 c -1.49858 2.4279 -3.24833 4.43998 -4.49793 5.1723 c -1.3991 0.81993 -2.86584 0.87582 -3.60433 0.13733 z m 2.28605 -0.81668 c 0.81883 -0.50607 2.47616 -2.46625 3.62341 -4.28553 l 0.46449 -0.73658 l -2.11497 1.06339 c -3.26655 1.64239 -4.76093 3.19033 -3.98386 4.12664 c 0.43653 0.52598 0.95874 0.48237 2.01093 -0.16792 z m 21.21809 -5.95578 c 0.80089 -0.56097 0.68463 -1.69142 -0.22082 -2.1472 c -0.70466 -0.35471 -1.2726074 -0.42759 -3.1031574 -0.40057 c -1.1249 0.0767 -2.9337647 0.3034 -3.2403347 0.37237 c 0 0 0.993716 0.68678 1.434896 0.93922 c 0.58731 0.33544 2.0145161 0.95811 3.0565161 1.27706 c 1.02785 0.31461 1.6224 0.28144 2.0729 -0.0409 z m -8.53152 -3.54594 c -0.4847 -0.50952 -1.30889 -1.57296 -1.83152 -2.3632 c -0.68353 -0.89643 -1.02629 -1.52887 -1.02629 -1.52887 c 0 0 -0.4996 1.60694 -0.90948 2.57394 l -1.27876 3.16076 l -0.37075 0.71695 c 0 0 1.971043 -0.64627 2.97389 -0.90822 c 1.0621668 -0.27744 3.21787 -0.70134 3.21787 -0.70134 z m -2.74938 -11.02573 c 0.12363 -1.0375 0.1761 -2.07346 -0.15724 -2.59587 c -0.9246 -1.01077 -2.04057 -0.16787 -1.85154 2.23517 c 0.0636 0.8084 0.26443 2.19033 0.53292 3.04209 l 0.48817 1.54863 l 0.34358 -1.16638 c 0.18897 -0.64151 0.47882 -2.02015 0.64411 -3.06364 z" stroke-linecap="round" />
</g>
</svg>